<svg width="39" height="59" fill="none" xmlns="http://www.w3.org/2000/svg"><path d="M8.32 32.74l.162 10.807a5.312 5.312 0 001.088 3.296c1.427 1.797 4.495 4.287 10.514 4.292 6.018.005 9.082-2.495 10.513-4.292a5.346 5.346 0 001.088-3.296l-.113-10.585s2.578.692 2.808-2.456a.439.439 0 00-.431-.466h-2.264l-.236-20.713c0-3.016-5.097-5.462-11.39-5.462S8.674 6.32 8.674 9.327c.001.143.013.286.034.427L8.482 30.04H6.198a.42.42 0 00-.416.447c.2 3.154 2.539 2.255 2.539 2.255z" fill="#14429C"/><path d="M20.083 42.647c4.936 0 7.69-2.411 8.568-3.34a.815.815 0 00.19-.786l-1.014-3.556a.815.815 0 00-.78-.594H13.12a.817.817 0 00-.785.594l-1.039 3.556a.828.828 0 00.191.786c.902.929 3.662 3.34 8.597 3.34zm.001-34.95c-4.935 0-7.695.575-8.572 1.503a.82.82 0 00-.191.786l1.014 3.556a.815.815 0 00.784.59h13.93a.808.808 0 00.779-.59l1.015-3.556a.813.813 0 00-.192-.786c-.877-.928-3.631-1.503-8.567-1.503zm9.66 27.663l-1.294-1.906a.26.26 0 01-.044-.147l-.299-8.453a.28.28 0 01.27-.29l1.234-.044a.284.284 0 01.29.27l.362 10.422a.28.28 0 01-.383.265.28.28 0 01-.136-.117zm-.079-22.665l-1.289 1.93a.31.31 0 00-.049.148l-.24 8.458a.28.28 0 00.27.285l1.234.034a.274.274 0 00.29-.27l.299-10.423a.28.28 0 00-.375-.274.28.28 0 00-.14.112zM10.472 35.36l1.313-1.906a.311.311 0 00.05-.148l.293-8.453a.277.277 0 00-.27-.29l-1.234-.044a.28.28 0 00-.284.27l-.368 10.423a.28.28 0 00.5.147zm.078-22.663l1.29 1.93c.03.043.047.094.049.147l.24 8.458a.276.276 0 01-.27.285l-1.235.035a.275.275 0 01-.284-.27l-.299-10.423a.28.28 0 01.37-.269.28.28 0 01.14.107z" fill="#2D3039"/><path d="M26.735 49.23c.432-1.227 1.583-3.663 3.92-3.437a.38.38 0 01.347.392.384.384 0 01-.052.182 8.483 8.483 0 01-3.759 3.281.327.327 0 01-.473-.22.33.33 0 01.017-.197zm-13.308 0c-.431-1.228-1.583-3.664-3.92-3.438a.382.382 0 00-.29.575 8.484 8.484 0 003.76 3.28.323.323 0 00.45-.417z" fill="#fff"/><g filter="url(#egqgvjmgya)"><path d="M8.32 32.74l.162 10.807a5.312 5.312 0 001.088 3.296c1.427 1.797 4.495 4.287 10.514 4.292 6.018.005 9.082-2.495 10.513-4.292a5.346 5.346 0 001.088-3.296l-.113-10.585s2.578.692 2.808-2.456a.439.439 0 00-.431-.466h-2.264l-.236-20.713c0-3.016-5.097-5.462-11.39-5.462S8.674 6.32 8.674 9.327c.001.143.013.286.034.427l-.226 20.285H6.198a.42.42 0 00-.416.447c.2 3.154 2.539 2.255 2.539 2.255z" stroke="#FF6E6F" stroke-width="1.5"/></g><path d="M16.588 22.376l6.427.026a1.022 1.022 0 01.736.315 1.067 1.067 0 01.301.753l-.006 1.626a1.025 1.025 0 01-.294.716.982.982 0 01-.703.294l-6.476-.027a.982.982 0 01-.7-.3 1.025 1.025 0 01-.289-.717l.007-1.671a1.031 1.031 0 01.292-.72.992.992 0 01.705-.295z" fill="#fff"/><defs><filter id="egqgvjmgya" x="2.979" y="1.063" width="34.204" height="52.875" filterUnits="userSpaceOnUse" color-interpolation-filters="sRGB"><feFlood flood-opacity="0" result="BackgroundImageFix"/><feGaussianBlur in="BackgroundImageFix" stdDeviation="1.026"/><feComposite in2="SourceAlpha" operator="in" result="effect1_backgroundBlur_121_2501"/><feBlend in="SourceGraphic" in2="effect1_backgroundBlur_121_2501" result="shape"/></filter></defs></svg>