<svg width="44" height="36" fill="none" xmlns="http://www.w3.org/2000/svg"><rect width="44" height="26" rx="13" fill="#2862F6"/><path d="M16.943 8.029v1.274h-3.848v.897h3.614v1.248h-3.614v.923a46.015 46.015 0 002.535-.078 16.2 16.2 0 001.95-.247l.169 1.261c-.746.139-1.504.23-2.275.273-.763.043-1.773.065-3.03.065h-.961V8.029h5.46zm-4.316 6.331h1.599v1.04h4.394v-1.04h1.586v4.602h-7.58V14.36zm5.993 3.302v-1.014h-4.394v1.014h4.394zm-.026-10.218h1.612v2.522h1.56v1.313h-1.56v2.613h-1.612V7.444zm9.906.195v.364c0 .425.152.84.455 1.248.303.407.75.758 1.339 1.053.59.295 1.291.494 2.106.598l-.585 1.248c-.953-.13-1.79-.394-2.509-.793-.71-.399-1.257-.888-1.638-1.469-.381.59-.927 1.083-1.638 1.482-.71.39-1.547.65-2.509.78l-.585-1.248c.823-.104 1.525-.303 2.106-.598.59-.295 1.036-.641 1.339-1.04.303-.407.455-.828.455-1.261v-.364H28.5zm-6.097 5.174h10.53v1.274h-10.53v-1.274zm1.209 4.173c0-.667.355-1.183 1.066-1.547.71-.373 1.699-.559 2.964-.559s2.253.186 2.964.559c.72.364 1.079.88 1.079 1.547 0 .676-.355 1.196-1.066 1.56-.71.373-1.703.559-2.977.559-1.265 0-2.253-.186-2.964-.559-.71-.364-1.066-.884-1.066-1.56zm1.625 0c0 .607.802.91 2.405.91 1.612 0 2.418-.303 2.418-.91 0-.59-.806-.884-2.418-.884-1.603 0-2.405.295-2.405.884z" fill="#fff"/><path d="M22.893 34.233a1 1 0 01-1.786 0l-4.436-8.782A1 1 0 0117.563 24h8.874a1 1 0 01.892 1.45l-4.436 8.783z" fill="#2862F6"/></svg>