<svg width="44" height="36" fill="none" xmlns="http://www.w3.org/2000/svg"><rect width="44" height="26" rx="13" fill="#FF6928"/><path d="M20.167 7.444v4.563h1.703v1.339h-1.703v5.746h-1.612V7.444h1.612zm-9.178 1.729h2.6V7.626h1.625v1.547h2.574v1.287h-6.8V9.173zm.48 4.745c0-.537.126-1.014.378-1.43.26-.425.61-.754 1.053-.988a3.22 3.22 0 011.508-.351c.554 0 1.057.117 1.508.351.45.234.801.563 1.053.988.26.425.39.901.39 1.43 0 .529-.13 1.005-.39 1.43a2.602 2.602 0 01-1.053.975 3.226 3.226 0 01-1.508.351 3.223 3.223 0 01-1.508-.351 2.717 2.717 0 01-1.053-.975 2.755 2.755 0 01-.377-1.43zm1.548 0c0 .442.125.793.377 1.053.26.26.598.39 1.014.39.416 0 .754-.13 1.014-.39s.39-.611.39-1.053c0-.45-.13-.806-.39-1.066-.26-.269-.598-.403-1.014-.403-.416 0-.754.134-1.014.403-.252.26-.377.615-.377 1.066zm11.96-4.563V7.691h1.599v1.664h2.353v1.261h-2.353v.468c0 .893.23 1.746.689 2.561a4.43 4.43 0 001.976 1.846l-.858 1.222a4.475 4.475 0 01-1.547-1.183 6.277 6.277 0 01-1.04-1.807 6.285 6.285 0 01-1.079 1.937 4.529 4.529 0 01-1.638 1.261l-.871-1.222a4.36 4.36 0 001.521-1.157 5.03 5.03 0 00.949-1.638 5.581 5.581 0 00.312-1.82v-.468h-2.405V9.355h2.392zm4.914-1.911h1.612v4.55h1.729v1.326h-1.729v5.772h-1.612V7.444z" fill="#fff"/><path d="M22.893 34.233a1 1 0 01-1.786 0l-4.436-8.782A1 1 0 0117.563 24h8.874a1 1 0 01.892 1.45l-4.436 8.783z" fill="#FF6928"/></svg>